<?xml version="1.0" encoding="utf-8"?>
<!-- Generator: Adobe Illustrator 19.0.0, SVG Export Plug-In . SVG Version: 6.00 Build 0)  -->
<svg version="1.1" id="Layer_1" xmlns="http://www.w3.org/2000/svg" xmlns:xlink="http://www.w3.org/1999/xlink" x="0px" y="0px"
	 viewBox="0 0 598.8 599.1" style="enable-background:new 0 0 598.8 599.1;" xml:space="preserve">
<style type="text/css">
	.st0{fill:#010101;}
</style>
<g transform="translate(0.000000,1046.000000) scale(0.100000,-0.100000)">
	<path class="st0" d="M2873.6,10457.7c-512-26-953-152-1368-393c-49-28-94-51-102-51c-18,0-122,79-165,125c-44,47-122,85-176,85
		c-275,1-703-417-722-706c-5-85,12-125,83-194c26-25,62-66,81-92l34-46l-63-99c-257-396-410-833-462-1318c-23-208-16-546,14-745
		c98-642,385-1213,841-1670c367-368,775-613,1273-764c441-134,980-158,1437-65c378,77,758,233,1054,432l70,46l32-33
		c100-103,274-58,445,113c110,110,169,220,169,313c0,59-15,103-44,127c-12,11-2,29,74,129c597,792,766,1803,459,2749
		c-330,1017-1198,1785-2263,2003C3380.6,10443.7,3067.6,10467.7,2873.6,10457.7z M3296.6,10248.7c696-73,1356-419,1812-950
		c159-186,274-357,379-565c211-416,303-804,303-1275c1-598-174-1139-525-1633c-82-115-97-123-97-56c0,20-9,39-28,57
		c-55,53-144,24-158-51c-9-46,11-142,41-202l23-46l-46-26c-72-41-166-131-220-213c-46-68-51-72-69-60c-35,25-142,55-193,55
		c-44,0-56-5-81-29c-43-43-41-93,6-137l35-33l-101-56c-327-184-674-300-1039-347c-54-7-210-12-365-12c-232,0-289,3-403,22
		c-655,108-1201,400-1640,877c-391,424-632,937-718,1530c-21,144-24,526-5,680c26,219,81,449,156,655c47,129,170,387,227,475l32,50
		l6-40c7-52,16-64,54-80c73-31,136,20,136,109s-41,217-102,317c-15,25-28,49-28,52s20,15,45,26c172,76,385,288,475,472l33,66l65-40
		c88-53,191-87,282-94c71-5,77-4,107,21c50,42,50,110,0,148c-12,9-20,19-17,21c16,15,211,106,305,142
		C2381.6,10234.7,2854.6,10295.7,3296.6,10248.7z M1068.6,9996.7c0-68-96-218-206-324c-81-77-140-119-226-159c-102-48-119-40-90,43
		c54,161,242,362,413,442c30,13,66,25,82,25C1064.6,10023.7,1068.6,10019.7,1068.6,9996.7z"/>
	<path class="st0" d="M3608.6,9347.7c-129-25-191-81-219-198c-28-113-109-236-197-297c-49-33-70-81-55-121c12-31,57-68,84-68
		c62,0,194,110,257,214c19,31,37,56,41,56s31-16,60-35c122-80,296-133,465-142l111-6l7-96c12-183,71-301,151-301c45,0,95,51,95,97
		c0,9-12,46-26,81c-34,84-35,204-3,329c13,53,19,102,16,126c-24,176-341,353-652,362C3683.6,9350.7,3622.6,9349.7,3608.6,9347.7z
		 M3912.6,9128.7c107-31,194-74,247-122c46-42,42-49-37-59c-98-12-315,40-414,99c-51,30-110,77-110,88
		C3598.6,9169.7,3781.6,9166.7,3912.6,9128.7z"/>
	<path class="st0" d="M1306.6,8560.7c-49-45-44-113,11-159c18-15,21-29,21-86c0-147-85-364-180-462c-42-44-54-50-89-50
		c-119,0-132-152-16-190c66-22,163,20,247,107c105,107,205,331,229,514c20,149-18,281-95,328
		C1389.6,8590.7,1338.6,8589.7,1306.6,8560.7z"/>
	<path class="st0" d="M4726.6,7249.7c-147-60-339-251-425-421c-33-65-63-173-63-228c0-61,30-129,70-157c85-61,189,29,141,121
		c-16,30-18,44-10,78c31,136,197,346,324,410c49,24,71,27,119,15c38-9,91,19,106,57c19,44,4,86-42,120c-35,25-50,29-102,29
		C4803.6,7273.7,4764.6,7265.7,4726.6,7249.7z"/>
	<path class="st0" d="M1221.6,6709.7c-26-22-28-31-34-118c-7-107-28-167-98-272c-85-126-93-145-89-208c14-209,336-510,604-565
		c64-13,86-13,131-3c57,12,57,12,174,142c67,74,158,133,239,154c75,19,88,27,107,72c11,27,11,37-1,66c-8,19-23,39-34,45
		c-60,32-193-4-311-83l-77-51l-34,53c-43,66-165,184-248,241c-62,42-182,103-222,114c-20,5-20,6-5,44c69,161,79,310,25,368
		C1316.6,6742.7,1260.6,6742.7,1221.6,6709.7z M1286.6,6102.7c148-50,337-212,387-333l16-39l-41,6c-132,17-355,185-429,322
		C1181.6,6130.7,1189.6,6135.7,1286.6,6102.7z"/>
</g>
</svg>
